<svg width="171px" height="171px" viewBox="0 0 171 171" version="1.1" xmlns="http://www.w3.org/2000/svg" xmlns:xlink="http://www.w3.org/1999/xlink">
    <!-- Generator: Sketch 64 (93537) - https://sketch.com -->
    <title> </title>
    <desc>Created with Sketch.</desc>
    <g id="-" stroke="none" stroke-width="1" fill="none" fill-rule="evenodd">
        <path d="M35.1647102,87.7079102 C35.1204542,88.4546887 35.1027537,89.2014465 35.1027537,89.9481627 C35.1027537,115.045807 57.3537798,135.403616 84.8170968,135.403616 C104.306769,135.403616 121.734092,125.062423 129.85932,109.202573 L142.675248,114.730372 C132.240017,135.096078 109.838993,148.391304 84.8175499,148.391304 C52.8219144,148.391304 26.3231567,126.873991 21.6668979,98.7799236 L12.1699425,113.390501 L0,106.74268 L25.5425819,67.4567004 L67.7072148,90.2083237 L60.529099,101.40169 L35.1647102,87.7079102 Z M135.844129,82.6752901 C135.87953,81.9366364 135.906083,81.1898786 135.906083,80.4431416 C135.906083,55.3371855 113.64622,34.987688 86.1917399,34.987688 C66.7020679,34.987688 49.2656814,45.3288817 41.1495164,61.1804191 L28.3245255,55.6609322 C38.7685934,35.2871226 61.1698433,22 86.1912868,22 C118.186922,22 144.68568,43.517313 149.341939,71.6030689 L158.838894,57.0005954 L171,63.6484165 L145.457418,102.934396 L103.292785,80.1827728 L110.479738,68.9894063 L135.844129,82.6752901 Z" id="Shape" fill="#FDCD2F" fill-rule="nonzero"></path>
    </g>
</svg>